<svg xmlns="http://www.w3.org/2000/svg" enable-background="new 0 0 420 248" xml:space="preserve" height="512" width="512" version="1.1" y="0px" x="0px" viewBox="0 0 512 512">
<path d="m512 246c-33-4-64-9-92-9-3 23-7 44-17 68 41-14 88-45 109-59z" fill="#f2f2f2"/>
<path d="m0 246c33-4 64-9 92-9 3 23 7 44 17 68-41-14-88-45-109-59z" fill="#f2f2f2"/>
<path d="m114 315c14 25 33 47 56 60-58 25-156 32-156 32s50-60 100-92z" fill="#f2f2f2"/>
<path d="m398 315c-14 25-33 47-56 60 58 25 156 32 156 32s-50-60-100-92z" fill="#f2f2f2"/>
<path d="m402 241c3-22-21-38-51-47-1-0-9-2-11 6 29 9 47 23 47 38 0 27-59 50-132 50-73 0-131-22-131-50 0-15 18-29 48-38v-0c0-9-11-7-12-7-32 10-54 27-52 48 6 69 50 140 147 140 98 0 139-72 147-140z" fill="#d0494b"/>
<path d="m250 91c24 6 5 44 0 64-6 27-12 49-4 91 0 3 3 5 6 5 0 0 1-0 1-0 3-1 6-4 5-7-7-40-2-60 4-86 5-21 18-17 18-17-3 43 101 29 101 29s-75-97-99-40c0 0-15 5-14-3 4-27 0-38-17-45 7-51-104-23-104-23s82 84 101 32z" fill="#f2f2f2"/>
</svg>

